#!OML:ASF E:\motion texture\Top Level 1\Subject 1\Session 1\male.ASF
:FULLY-SPECIFIED
:DEGREES
143
root 35.0227 16.4811 6.22367 30.4319 -67.3996 -25.8002
lowerback 8.9748 0.106038 8.27686
upperback 1.20936 1.00199 5.58108
thorax -3.73294 0.339933 1.0693
lowerneck -14.8482 -0.558752 -7.23774
upperneck 3.30444 0.588654 -0.964293
head 3.74421 0.0917153 1.02275
rclavicle -5.76476e-015 3.10104e-014
rhumerus 7.04901 41.9904 -75.4444
rradius 67.6765
rwrist 10.9117
rhand -29.486 -26.412
rfingers 7.12502
rthumb -2.82108 -56.3731
lclavicle -5.76476e-015 3.10104e-014
lhumerus -0.210092 -20.2314 96.9309
lradius 62.0385
lwrist -1.22733
lhand -10.5512 30.1126
lfingers 7.12502
lthumb 15.4528 59.5149
rfemur -13.1896 -5.94848 14.569
rtibia 38.188
rfoot -18.3417 -15.2356
rtoes -21.4577
lfemur -48.4904 11.8355 -5.07069
ltibia 43.4106
lfoot -7.62831 3.39904
ltoes -14.8988
144
root 34.8999 16.4731 6.30421 30.4838 -67.0099 -25.8117
lowerback 8.92548 0.153223 8.27527
upperback 1.20506 1.05972 5.54749
thorax -3.7069 0.370006 1.02797
lowerneck -14.8233 -0.634972 -7.32943
upperneck 3.2646 0.49755 -0.92386
head 3.7289 0.0484967 1.04556
rclavicle 3.73715e-014 8.50798e-014
rhumerus 7.63953 42.5364 -75.4435
rradius 67.6388
rwrist 10.8068
rhand -29.4612 -26.4566
rfingers 7.12502
rthumb -2.79712 -56.418
lclavicle 3.73715e-014 8.50798e-014
lhumerus 0.0277638 -20.1688 96.9549
lradius 62.1911
lwrist -0.746174
lhand -10.3557 30.5528
lfingers 7.12502
lthumb 15.6411 59.9405
rfemur -12.474 -5.85497 14.6531
rtibia 37.8354
rfoot -18.2249 -15.5816
rtoes -21.5944
lfemur -48.4578 12.0553 -4.67824
ltibia 42.0562
lfoot -7.32394 4.48163
ltoes -14.5168
145
root 34.7765 16.4669 6.38968 30.5594 -66.6315 -25.8262
lowerback 8.85909 0.20604 8.26324
upperback 1.19329 1.12272 5.51003
thorax -3.67903 0.402903 0.987901
lowerneck -14.7963 -0.710702 -7.42047
upperneck 3.22421 0.406664 -0.881974
head 3.71313 0.00551623 1.06878
rclavicle -6.36111e-015 -1.11319e-014
rhumerus 8.22555 43.0656 -75.428
rradius 67.6297
rwrist 10.7014
rhand -29.4212 -26.4947
rfingers 7.12502
rthumb -2.75846 -56.4566
lclavicle -6.36111e-015 -1.11319e-014
lhumerus 0.247823 -20.1016 96.9704
lradius 62.3665
lwrist -0.288979
lhand -10.1748 30.9758
lfingers 7.12502
lthumb 15.8153 60.3497
rfemur -11.7608 -5.72798 14.7282
rtibia 37.4411
rfoot -18.0536 -15.9346
rtoes -21.7512
lfemur -48.4094 12.2683 -4.3088
ltibia 40.6745
lfoot -6.98006 5.55844
ltoes -14.0573
146
root 34.6524 16.4622 6.48007 30.6571 -66.2631 -25.8422
lowerback 8.77692 0.263498 8.24121
upperback 1.17361 1.18993 5.46858
thorax -3.65053 0.438052 0.948905
lowerneck -14.767 -0.786328 -7.51119
upperneck 3.18326 0.31544 -0.83712
head 3.69691 -0.0374267 1.09293
rclavicle 3.71727e-014 -1.66979e-014
rhumerus 8.80352 43.5713 -75.4035
rradius 67.6462
rwrist 10.6008
rhand -29.3662 -26.524
rfingers 7.12502
rthumb -2.70542 -56.4866
lclavicle 3.71727e-014 -1.66979e-014
lhumerus 0.451185 -20.0295 96.9744
lradius 62.563
lwrist 0.143358
lhand -10.0143 31.3805
lfingers 7.12502
lthumb 15.9698 60.7422
rfemur -11.0571 -5.57098 14.794
rtibia 37.019
rfoot -17.8311 -16.2757
rtoes -21.9269
lfemur -48.3512 12.475 -3.9631
ltibia 39.2827
lfoot -6.59823 6.62984
ltoes -13.5073
147
root 34.5276 16.4591 6.57541 30.7756 -65.901 -25.8585
lowerback 8.67943 0.324856 8.21071
upperback 1.1458 1.26062 5.42365
thorax -3.6219 0.475041 0.91081
lowerneck -14.7376 -0.863408 -7.60129
upperneck 3.14374 0.221989 -0.788925
head 3.68143 -0.0813127 1.11798
rclavicle 2.54444e-014 -4.85035e-014
rhumerus 9.36852 44.0503 -75.3695
rradius 67.688
rwrist 10.5053
rhand -29.3038 -26.549
rfingers 7.12502
rthumb -2.64508 -56.5124
lclavicle 2.54444e-014 -4.85035e-014
lhumerus 0.640036 -19.9534 96.9655
lradius 62.7779
lwrist 0.548317
lhand -9.86718 31.7595
lfingers 7.12502
lthumb 16.1115 61.1098
rfemur -10.3682 -5.38355 14.8509
rtibia 36.5806
rfoot -17.5642 -16.6036
rtoes -22.1092
lfemur -48.2902 12.6726 -3.64241
ltibia 37.9006
lfoot -6.1981 7.69265
ltoes -12.8959
148
root 34.4022 16.4575 6.67563 30.9059 -65.5422 -25.8685
lowerback 8.56855 0.388635 8.16968
upperback 1.11073 1.33283 5.37548
thorax -3.59344 0.512926 0.875297
lowerneck -14.7051 -0.940882 -7.69481
upperneck 3.1032 0.127684 -0.730937
head 3.66529 -0.125104 1.14692
rclavicle 5.48646e-014 5.88403e-014
rhumerus 9.91587 44.4979 -75.3295
rradius 67.7545
rwrist 10.4176
rhand -29.2358 -26.5689
rfingers 7.12502
rthumb -2.57948 -56.5331
lclavicle 5.48646e-014 5.88403e-014
lhumerus 0.816512 -19.874 96.9419
lradius 63.0084
lwrist 0.923295
lhand -9.73434 32.1138
lfingers 7.12502
lthumb 16.2395 61.4536
rfemur -9.69053 -5.16894 14.8968
rtibia 36.1258
rfoot -17.2512 -16.916
rtoes -22.3081
lfemur -48.2314 12.8636 -3.35275
ltibia 36.5492
lfoot -5.79508 8.7297
ltoes -12.2292
